<svg xmlns="http://www.w3.org/2000/svg" xmlns:xlink="http://www.w3.org/1999/xlink" xmlns:lucid="lucid" width="1116" height="892"><g transform="translate(-518 -1194)" lucid:page-tab-id="0_0"><path d="M500 500h1500v2000H500z" fill="#fff"/><path d="M940 1242a2 2 0 0 1 2-2h596a2 2 0 0 1 2 2v776a2 2 0 0 1-2 2H942a2 2 0 0 1-2-2z" fill="#edf5ff"/><use xlink:href="#a" transform="matrix(1,0,0,1,956,1256) translate(0 16.69921875)"/><path d="M960 1842a2 2 0 0 1 2-2h556a2 2 0 0 1 2 2v156a2 2 0 0 1-2 2H962a2 2 0 0 1-2-2z" fill="#fff"/><use xlink:href="#b" transform="matrix(1,0,0,1,976,1856) translate(0 16.69921875)"/><use xlink:href="#c" transform="matrix(1,0,0,1,976,1856) translate(60.521484375 16.69921875)"/><g filter="url(#d)"><path d="M600 1499.72a2 2 0 0 1 2-2h128a2 2 0 0 1 2 2v126a2 2 0 0 1-2 2H602a2 2 0 0 1-2-2z" fill="#fff"/><path d="M706.5 1518.4h-81c-2.5 0-4.6.87-6.37 2.6-1.76 1.72-2.63 3.82-2.63 6.26v53.18c0 2.45.87 4.54 2.63 6.27 1.77 1.74 3.88 2.6 6.37 2.6H657v8.87h-9v8.87h36v-8.87h-9v-8.86h31.5c2.5 0 4.6-.86 6.37-2.6 1.76-1.72 2.63-3.8 2.63-6.26v-53.18c0-2.44-.87-4.54-2.63-6.26-1.77-1.73-3.88-2.6-6.37-2.6zm0 62.04h-81v-53.18h81z" fill="#757575"/></g><path d="M960 1290.7a2 2 0 0 1 2-2h556a2 2 0 0 1 2 2v528.17a2 2 0 0 1-2 2H962a2 2 0 0 1-2-2z" fill="#fff"/><use xlink:href="#b" transform="matrix(1,0,0,1,976,1304.695652173913) translate(0 16.69921875)"/><use xlink:href="#e" transform="matrix(1,0,0,1,976,1304.695652173913) translate(60.521484375 16.69921875)"/><use xlink:href="#f" transform="matrix(1,0,0,1,976,1304.695652173913) translate(120.8759765625 16.69921875)"/><g filter="url(#g)"><path d="M896 1387a2 2 0 0 1 2-2h173.15a2 2 0 0 1 2 2v56a2 2 0 0 1-2 2H898a2 2 0 0 1-2-2z" fill="#fff"/><path d="M926 1395c-5.52 0-10.24 1.95-14.14 5.86-3.9 3.9-5.86 8.62-5.86 14.14 0 5.52 1.95 10.24 5.86 14.14 3.9 3.9 8.62 5.86 14.14 5.86 5.52 0 10.24-1.95 14.14-5.86 3.9-3.9 5.86-8.62 5.86-14.14 0-5.52-1.95-10.24-5.86-14.14-3.9-3.9-8.62-5.86-14.14-5.86zm11.25 30h-8.75v-6.25h2.5v-2.5h-10v2.5h2.5v6.25h-8.75v-6.25h3.75V1415c0-.34.12-.64.37-.88.24-.25.54-.37.88-.37h5v-2.5H921V1405h10v6.25h-3.75v2.5h5c.35 0 .64.12.88.37.25.24.37.54.37.88v3.75h3.75z" fill="#757575"/><use xlink:href="#h" transform="matrix(1,0,0,1,956,1405) translate(0 16.69921875)"/></g><path d="M1180 1322a2 2 0 0 1 2-2h296a2 2 0 0 1 2 2v186a2 2 0 0 1-2 2h-296a2 2 0 0 1-2-2z" fill="#dedeff"/><use xlink:href="#i" transform="matrix(1,0,0,1,1196,1336) translate(0 16.69921875)"/><use xlink:href="#j" transform="matrix(1,0,0,1,1196,1336) translate(32.44921875 16.69921875)"/><g filter="url(#k)"><path d="M1213.14 1372a2 2 0 0 1 2-2h229.72a2 2 0 0 1 2 2v56a2 2 0 0 1-2 2h-229.72a2 2 0 0 1-2-2z" fill="#fff"/><path d="M1234.4 1395h17.5v12.5h-17.5z" fill="#757575"/><path d="M1243.14 1380c-5.52 0-10.24 1.95-14.14 5.86-3.9 3.9-5.86 8.62-5.86 14.14 0 5.52 1.95 10.24 5.86 14.14 3.9 3.9 8.62 5.86 14.14 5.86 5.52 0 10.24-1.95 14.14-5.86 3.9-3.9 5.86-8.62 5.86-14.14 0-5.52-1.95-10.24-5.86-14.14-3.9-3.9-8.62-5.86-14.14-5.86zm11.25 27.5c0 .7-.26 1.28-.74 1.77-.5.5-1.08.73-1.77.73h-17.5c-.7 0-1.3-.24-1.78-.73-.48-.5-.73-1.08-.73-1.77v-15c0-.7.24-1.28.72-1.77.5-.5 1.08-.73 1.77-.73h17.5c.68 0 1.27.24 1.76.73.48.5.73 1.08.73 1.77z" fill="#757575"/><use xlink:href="#l" transform="matrix(1,0,0,1,1273.1404540599065,1390) translate(0 16.69921875)"/></g><g filter="url(#k)"><path d="M1213.14 1432a2 2 0 0 1 2-2h229.72a2 2 0 0 1 2 2v56a2 2 0 0 1-2 2h-229.72a2 2 0 0 1-2-2z" fill="#fff"/><path d="M1234.4 1455h17.5v12.5h-17.5z" fill="#757575"/><path d="M1243.14 1440c-5.52 0-10.24 1.95-14.14 5.86-3.9 3.9-5.86 8.62-5.86 14.14 0 5.52 1.95 10.24 5.86 14.14 3.9 3.9 8.62 5.86 14.14 5.86 5.52 0 10.24-1.95 14.14-5.86 3.9-3.9 5.86-8.62 5.86-14.14 0-5.52-1.95-10.24-5.86-14.14-3.9-3.9-8.62-5.86-14.14-5.86zm11.25 27.5c0 .7-.26 1.28-.74 1.77-.5.5-1.08.73-1.77.73h-17.5c-.7 0-1.3-.24-1.78-.73-.48-.5-.73-1.08-.73-1.77v-15c0-.7.24-1.28.72-1.77.5-.5 1.08-.73 1.77-.73h17.5c.68 0 1.27.24 1.76.73.48.5.73 1.08.73 1.77z" fill="#757575"/><use xlink:href="#m" transform="matrix(1,0,0,1,1273.1404540599065,1450) translate(0 16.69921875)"/></g><g filter="url(#g)"><path d="M920 1696.57a2 2 0 0 1 2-2h173.15a2 2 0 0 1 2 2v56a2 2 0 0 1-2 2H922a2 2 0 0 1-2-2z" fill="#fff"/><path d="M941.25 1719.57h17.5v12.5h-17.5z" fill="#757575"/><path d="M950 1704.57c-5.52 0-10.24 1.95-14.14 5.85-3.9 3.9-5.86 8.62-5.86 14.14 0 5.53 1.95 10.25 5.86 14.15 3.9 3.9 8.62 5.87 14.14 5.87 5.52 0 10.24-1.96 14.14-5.86 3.9-3.9 5.86-8.6 5.86-14.13 0-5.53-1.95-10.24-5.86-14.15-3.9-3.9-8.62-5.86-14.14-5.86zm11.25 27.5c0 .7-.25 1.28-.73 1.76-.5.5-1.08.74-1.77.74h-17.5c-.7 0-1.28-.25-1.77-.74-.48-.48-.73-1.07-.73-1.76v-15c0-.7.25-1.28.73-1.77.5-.5 1.08-.73 1.77-.73h17.5c.7 0 1.28.24 1.77.73.48.5.73 1.07.73 1.77z" fill="#757575"/><use xlink:href="#n" transform="matrix(1,0,0,1,980,1714.5652173913045) translate(0 16.69921875)"/></g><g filter="url(#g)"><path d="M920 1604.28a2 2 0 0 1 2-2h173.15a2 2 0 0 1 2 2v56a2 2 0 0 1-2 2H922a2 2 0 0 1-2-2z" fill="#fff"/><path d="M941.25 1627.28h17.5v12.5h-17.5z" fill="#757575"/><path d="M950 1612.28c-5.52 0-10.24 1.95-14.14 5.86-3.9 3.9-5.86 8.62-5.86 14.14 0 5.53 1.95 10.24 5.86 14.15 3.9 3.9 8.62 5.85 14.14 5.85 5.52 0 10.24-1.95 14.14-5.85 3.9-3.9 5.86-8.62 5.86-14.15 0-5.52-1.95-10.24-5.86-14.14-3.9-3.9-8.62-5.86-14.14-5.86zm11.25 27.5c0 .7-.25 1.28-.73 1.77-.5.5-1.08.73-1.77.73h-17.5c-.7 0-1.28-.24-1.77-.73-.48-.5-.73-1.08-.73-1.77v-15c0-.7.25-1.28.73-1.76.5-.5 1.08-.74 1.77-.74h17.5c.7 0 1.28.25 1.77.74.48.48.73 1.07.73 1.76z" fill="#757575"/><use xlink:href="#o" transform="matrix(1,0,0,1,980,1622.2826086956522) translate(0 16.69921875)"/></g><g filter="url(#p)"><path d="M1273.72 1697.43a2 2 0 0 1 2-2h176a2 2 0 0 1 2 2v56a2 2 0 0 1-2 2h-176a2 2 0 0 1-2-2z" fill="#fff"/><path d="M1294.97 1720.43h17.5v12.5h-17.5z" fill="#757575"/><path d="M1303.72 1705.43c-5.53 0-10.24 1.96-14.14 5.86-3.9 3.9-5.86 8.6-5.86 14.13 0 5.53 1.95 10.24 5.86 14.15 3.9 3.9 8.62 5.86 14.14 5.86 5.52 0 10.24-1.96 14.14-5.86 3.9-3.9 5.86-8.62 5.86-14.14 0-5.53-1.95-10.25-5.86-14.15-3.9-3.9-8.62-5.87-14.14-5.87zm11.25 27.5c0 .7-.25 1.28-.74 1.77-.48.5-1.07.73-1.76.73h-17.5c-.7 0-1.28-.24-1.77-.73-.5-.5-.73-1.07-.73-1.77v-15c0-.7.24-1.28.73-1.76.5-.5 1.08-.74 1.77-.74h17.5c.7 0 1.28.25 1.76.74.5.48.74 1.07.74 1.76z" fill="#757575"/><use xlink:href="#q" transform="matrix(1,0,0,1,1333.7190918801869,1715.4347826086955) translate(0 16.69921875)"/></g><path d="M756 1406a6 6 0 0 1 6-6h97a6 6 0 0 0 6-6v-3a2.3 2.3 0 0 1 4-1.54l19 21.08a6.67 6.67 0 0 1 0 8.92l-19 21.08a2.3 2.3 0 0 1-4-1.54v-3a6 6 0 0 0-6-6h-97a6 6 0 0 1-6-6z" stroke="#3a414a" fill="#fff"/><use xlink:href="#r" transform="matrix(1,0,0,1,761,1390) translate(46.65432098765432 30.27777777777778)"/><path d="M756 1621a6 6 0 0 1 6-6h97a6 6 0 0 0 6-6v-3a2.3 2.3 0 0 1 4-1.54l19 21.08a6.67 6.67 0 0 1 0 8.92l-19 21.08a2.3 2.3 0 0 1-4-1.54v-3a6 6 0 0 0-6-6h-97a6 6 0 0 1-6-6z" stroke="#3a414a" fill="#fff"/><use xlink:href="#s" transform="matrix(1,0,0,1,761,1605) translate(34.308641975308646 30.27777777777778)"/><path d="M756 1711a6 6 0 0 1 6-6h101a6 6 0 0 0 6-6v-3a2.3 2.3 0 0 1 4-1.54l19 21.08a6.67 6.67 0 0 1 0 8.92l-19 21.08a2.3 2.3 0 0 1-4-1.54v-3a6 6 0 0 0-6-6H762a6 6 0 0 1-6-6z" stroke="#3a414a" fill="#fff"/><use xlink:href="#t" transform="matrix(1,0,0,1,761,1695) translate(36.308641975308646 30.27777777777778)"/><path d="M1140 1436a6 6 0 0 1 6-6h48a6 6 0 0 1 6 6v19a6 6 0 0 1-6 6h-48a6 6 0 0 1-6-6z" stroke="#3a414a" fill="#fff"/><use xlink:href="#u" transform="matrix(1,0,0,1,1145,1435) translate(12.654320987654321 19.09027777777778)"/><g filter="url(#p)"><path d="M1273.72 1612a2 2 0 0 1 2-2h176a2 2 0 0 1 2 2v56a2 2 0 0 1-2 2h-176a2 2 0 0 1-2-2z" fill="#fff"/><path d="M1294.97 1635h17.5v12.5h-17.5z" fill="#757575"/><path d="M1303.72 1620c-5.53 0-10.24 1.95-14.14 5.86-3.9 3.9-5.86 8.62-5.86 14.14 0 5.52 1.95 10.24 5.86 14.14 3.9 3.9 8.62 5.86 14.14 5.86 5.52 0 10.24-1.95 14.14-5.86 3.9-3.9 5.86-8.62 5.86-14.14 0-5.52-1.95-10.24-5.86-14.14-3.9-3.9-8.62-5.86-14.14-5.86zm11.25 27.5c0 .7-.25 1.28-.74 1.77-.48.5-1.07.73-1.76.73h-17.5c-.7 0-1.28-.24-1.77-.73-.5-.5-.73-1.08-.73-1.77v-15c0-.7.24-1.28.73-1.77.5-.5 1.08-.73 1.77-.73h17.5c.7 0 1.28.24 1.76.73.5.5.74 1.08.74 1.77z" fill="#757575"/><use xlink:href="#v" transform="matrix(1,0,0,1,1333.7190918801869,1630) translate(0 16.69921875)"/><use xlink:href="#w" transform="matrix(1,0,0,1,1333.7190918801869,1630) translate(50.607421875 16.69921875)"/></g><path d="M1240 1686a6 6 0 0 1 6-6h40.7a6 6 0 0 1 6 6v13.43a6 6 0 0 1-6 6H1246a6 6 0 0 1-6-6z" stroke="#3a414a" fill="#fff"/><use xlink:href="#x" transform="matrix(1,0,0,1,1245,1685) translate(-3.1913580246913575 17.77777777777778)"/><path d="M1240 1608.28a6 6 0 0 1 6-6h40.7a6 6 0 0 1 6 6v13.44a6 6 0 0 1-6 6H1246a6 6 0 0 1-6-6z" stroke="#3a414a" fill="#fff"/><use xlink:href="#y" transform="matrix(1,0,0,1,1245,1607.2826086956522) translate(-2.358024691358022 17.77777777777778)"/><path d="M1073.65 1415h89.97" stroke="#3a414a" fill="none"/><path d="M1073.66 1415.5h-.5v-1h.5z" stroke="#3a414a" stroke-width=".05" fill="#3a414a"/><path d="M1178.38 1415l-14.26 4.63v-9.27z" stroke="#3a414a" fill="#3a414a"/><path d="M1097.65 1724.57H1185a.43.43 0 0 1 .43.43.43.43 0 0 0 .44.43h71.47" stroke="#3a414a" fill="none"/><path d="M1097.66 1725.07h-.5v-1h.5z" stroke="#3a414a" stroke-width=".05" fill="#3a414a"/><path d="M1272.1 1725.43l-14.26 4.64v-9.27z" stroke="#3a414a" fill="#3a414a"/><path d="M1097.65 1724.57h81.78a6 6 0 0 0 6-6V1646a6 6 0 0 1 6-6h65.9" stroke="#3a414a" fill="none"/><path d="M1097.66 1725.07h-.5v-1h.5z" stroke="#3a414a" stroke-width=".05" fill="#3a414a"/><path d="M1272.1 1640l-14.26 4.63v-9.27z" stroke="#3a414a" fill="#3a414a"/><path d="M1454.22 1640h33.5a6 6 0 0 0 6-6v-98a6 6 0 0 0-6-6H990.57a6 6 0 0 1-6-6v-62.62" stroke="#3a414a" fill="none"/><path d="M1454.23 1640.5h-.5v-1h.5z" stroke="#3a414a" stroke-width=".05" fill="#3a414a"/><path d="M984.57 1446.62l4.64 14.26h-9.26z" stroke="#3a414a" fill="#3a414a"/><use xlink:href="#z" transform="matrix(1,0,0,1,1079.7840474057075,1534) translate(0 14.222222222222223)"/><path d="M1008.57 1662.78v15.08a.56.56 0 0 1-.56.56h-.55" stroke="#3a414a" fill="none"/><path d="M1009.07 1662.8h-1v-.52h1z" stroke="#3a414a" stroke-width=".05" fill="#3a414a"/><path d="M1007.23 1692.95l-4.42-14.34 9.28.15z" stroke="#3a414a" fill="#3a414a"/><path d="M1105.72 1952c0 4.42-27.03 8-60.36 8-33.34 0-60.36-3.58-60.36-8v-64c0-4.42 27.02-8 60.36-8s60.36 3.58 60.36 8z" stroke="#3a414a" fill="#fff"/><path d="M1105.72 1888c0 4.42-27.03 8-60.36 8-33.34 0-60.36-3.58-60.36-8" stroke="#3a414a" fill="none"/><g><use xlink:href="#A" transform="matrix(1,0,0,1,989.9999999999999,1901) translate(-3.080246913580254 31.444444444444443)"/></g><path d="M986.93 1441.57a6 6 0 0 1 6-6h40.7a6 6 0 0 1 6 6V1455a6 6 0 0 1-6 6h-40.7a6 6 0 0 1-6-6z" stroke="#3a414a" fill="#fff"/><g><use xlink:href="#u" transform="matrix(1,0,0,1,991.9297729700465,1440.5652173913045) translate(9.154320987654321 17.77777777777778)"/></g><defs><path d="M1222-777c17 480-206 763-650 777H169v-1456h411c408 9 627 269 642 679zm-190 4c3-312-149-522-447-525H361v1141h202c308 0 473-209 469-531v-85" id="B"/><path d="M584 20C278 26 81-227 91-551c10-320 175-545 491-551 308-5 503 247 494 573-9 322-175 543-492 549zm-2-970c-208 0-305 185-305 421 0 216 106 398 307 398 211 0 307-186 307-420 0-214-109-399-309-399" id="C"/><path d="M277-555c0 244 77 420 297 424 127 2 249-93 255-210h175C980-127 805 20 574 20 258 20 81-222 92-562c11-319 164-533 481-540 237-5 426 165 431 392H829c-7-133-115-242-256-240-209 4-296 166-296 395" id="D"/><path d="M442-501L326-380V0H141v-1536h185v929c135-169 291-317 436-475h225L566-630 1036 0H819" id="E"/><path d="M599-131c141 0 220-65 285-146l113 88C906-50 770 20 589 20 281 21 93-214 93-545c0-223 93-397 233-485 74-48 154-72 240-72 300 2 449 218 445 537v77H278c0 197 129 357 321 357zm227-509c-3-180-88-310-260-310-170 0-264 140-282 310h542" id="F"/><path d="M663-916c-163-27-288 18-338 148V0H140v-1082h180l3 125c61-97 147-145 258-145 36 0 63 5 82 14v172" id="G"/><g id="a"><use transform="matrix(0.0087890625,0,0,0.0087890625,0,0)" xlink:href="#B"/><use transform="matrix(0.0087890625,0,0,0.0087890625,11.8037109375,0)" xlink:href="#C"/><use transform="matrix(0.0087890625,0,0,0.0087890625,22.0693359375,0)" xlink:href="#D"/><use transform="matrix(0.0087890625,0,0,0.0087890625,31.4912109375,0)" xlink:href="#E"/><use transform="matrix(0.0087890625,0,0,0.0087890625,40.4384765625,0)" xlink:href="#F"/><use transform="matrix(0.0087890625,0,0,0.0087890625,49.974609375,0)" xlink:href="#G"/></g><g id="b"><use transform="matrix(0.0087890625,0,0,0.0087890625,0,0)" xlink:href="#B"/><use transform="matrix(0.0087890625,0,0,0.0087890625,11.8037109375,0)" xlink:href="#C"/><use transform="matrix(0.0087890625,0,0,0.0087890625,22.0693359375,0)" xlink:href="#D"/><use transform="matrix(0.0087890625,0,0,0.0087890625,31.4912109375,0)" xlink:href="#E"/><use transform="matrix(0.0087890625,0,0,0.0087890625,40.4384765625,0)" xlink:href="#F"/><use transform="matrix(0.0087890625,0,0,0.0087890625,49.974609375,0)" xlink:href="#G"/></g><path d="M497-251l268-831h189L566 0H425L33-1082h189" id="H"/><path d="M341 0H156v-1536h185V0" id="I"/><path d="M491 20c-241-1-355-148-355-398v-704h185v699c0 164 67 246 200 246 141 0 235-53 282-158v-787h185V0H812l-4-107C736-22 630 20 491 20" id="J"/><path d="M1240-945c-141 0-250 95-250 227V0H804v-709c0-157-77-236-231-236-121 0-204 52-249 155V0H139v-1082h175l5 120c79-93 186-140 321-140 151 0 254 58 309 174 69-98 181-174 345-174 237 0 362 126 362 377V0h-185v-714c-2-159-67-231-231-231" id="K"/><path d="M538-131c121 0 232-49 232-156 0-50-20-88-56-117-73-60-334-92-420-143-92-55-162-110-162-238 0-190 192-317 400-317 223 0 414 129 413 338H759c0-108-110-186-227-186-119 0-215 53-215 159 0 45 18 78 53 101 76 52 331 90 416 139 98 57 169 115 169 251C955-92 760 20 538 20c-176 0-314-68-386-174-38-55-57-115-57-179h185c6 129 116 202 258 202" id="L"/><g id="c"><use transform="matrix(0.0087890625,0,0,0.0087890625,0,0)" xlink:href="#H"/><use transform="matrix(0.0087890625,0,0,0.0087890625,8.5869140625,0)" xlink:href="#C"/><use transform="matrix(0.0087890625,0,0,0.0087890625,18.8525390625,0)" xlink:href="#I"/><use transform="matrix(0.0087890625,0,0,0.0087890625,23.220703125,0)" xlink:href="#J"/><use transform="matrix(0.0087890625,0,0,0.0087890625,33.1435546875,0)" xlink:href="#K"/><use transform="matrix(0.0087890625,0,0,0.0087890625,48.919921875,0)" xlink:href="#F"/><use transform="matrix(0.0087890625,0,0,0.0087890625,58.4560546875,0)" xlink:href="#L"/></g><filter id="d" filterUnits="objectBoundingBox" x="-.01" y="0" width="1.02" height="1.02"><feOffset result="offOut" in="SourceAlpha" dy="1"/><feGaussianBlur result="blurOut" in="offOut" stdDeviation=".75"/><feColorMatrix result="colorOut" in="blurOut" values="0 0 0 0 0 0 0 0 0 0 0 0 0 0 0 0 0 0 0.4 0"/><feBlend in="SourceGraphic" in2="colorOut"/></filter><path d="M520 20C244 20 95-247 95-550c0-298 151-550 427-552 127 0 227 43 301 130v-564h185V0H838l-9-116C755-25 652 20 520 20zm48-965c-210 0-288 177-288 416 0 218 87 392 286 392 117 0 203-53 257-158v-497c-55-102-140-153-255-153" id="M"/><path d="M704-1390c-164-38-297 28-288 194v114h231v143H416V0H231v-939H60v-143h171v-111c-12-274 208-416 483-347" id="N"/><path d="M561-1102c238-4 403 126 403 351v498c0 99 13 178 38 237V0H808c-11-21-19-59-26-114C696-25 593 20 474 20c-199 0-368-130-365-320 4-251 214-359 490-356h180v-85c-1-135-86-212-229-212-115 0-232 67-233 171H131c20-205 206-316 430-320zM294-326c0 117 90 185 207 185 122 0 239-75 278-162v-222H634c-227 0-340 66-340 199" id="O"/><path d="M456 20C285 20 205-92 206-268v-671H9v-143h197v-262h185v262h202v143H391v671c-9 125 92 149 207 118V0c-49 13-96 20-142 20" id="P"/><g id="e"><use transform="matrix(0.0087890625,0,0,0.0087890625,0,0)" xlink:href="#M"/><use transform="matrix(0.0087890625,0,0,0.0087890625,10.1513671875,0)" xlink:href="#F"/><use transform="matrix(0.0087890625,0,0,0.0087890625,19.6875,0)" xlink:href="#N"/><use transform="matrix(0.0087890625,0,0,0.0087890625,25.9365234375,0)" xlink:href="#O"/><use transform="matrix(0.0087890625,0,0,0.0087890625,35.7275390625,0)" xlink:href="#J"/><use transform="matrix(0.0087890625,0,0,0.0087890625,45.650390625,0)" xlink:href="#I"/><use transform="matrix(0.0087890625,0,0,0.0087890625,50.0185546875,0)" xlink:href="#P"/></g><path d="M589-945c-131 0-219 81-264 174V0H140v-1082h175l6 136c83-104 191-156 324-156 229 0 346 129 346 387V0H806v-716c-2-153-65-229-217-229" id="Q"/><path d="M1098-255l208-827h185L1176 0h-150L763-820 507 0H357L43-1082h184l213 810 252-810h149" id="R"/><g id="f"><use transform="matrix(0.0087890625,0,0,0.0087890625,0,0)" xlink:href="#Q"/><use transform="matrix(0.0087890625,0,0,0.0087890625,9.931640625,0)" xlink:href="#F"/><use transform="matrix(0.0087890625,0,0,0.0087890625,19.4677734375,0)" xlink:href="#P"/><use transform="matrix(0.0087890625,0,0,0.0087890625,25.34765625,0)" xlink:href="#R"/><use transform="matrix(0.0087890625,0,0,0.0087890625,38.8740234375,0)" xlink:href="#C"/><use transform="matrix(0.0087890625,0,0,0.0087890625,49.1396484375,0)" xlink:href="#G"/><use transform="matrix(0.0087890625,0,0,0.0087890625,55.23046875,0)" xlink:href="#E"/></g><path d="M1288 0h-193L362-1122V0H169v-1456h193l735 1127v-1127h191V0" id="S"/><path d="M521 20C240 20 96-239 96-550c0-303 147-552 427-552 132 0 235 47 309 140l9-120h169V-26c4 277-183 454-459 452-165-1-334-81-400-187l96-111c79 98 176 147 291 147 180 1 288-109 286-290v-93C750-23 649 20 521 20zm48-965c-209 0-287 178-287 416 0 217 86 392 285 392 117 0 202-53 257-159v-494c-57-103-142-155-255-155" id="T"/><path d="M341 0H156v-1082h185V0zm-91-1264c-68 0-108-42-109-105 0-62 41-107 109-107s110 44 110 107-42 105-110 105" id="U"/><path d="M503-687l240-395h216L605-547 970 0H756L506-405 256 0H41l365-547-354-535h214" id="V"/><g id="h"><use transform="matrix(0.0087890625,0,0,0.0087890625,0,0)" xlink:href="#S"/><use transform="matrix(0.0087890625,0,0,0.0087890625,12.83203125,0)" xlink:href="#T"/><use transform="matrix(0.0087890625,0,0,0.0087890625,22.9306640625,0)" xlink:href="#U"/><use transform="matrix(0.0087890625,0,0,0.0087890625,27.298828125,0)" xlink:href="#Q"/><use transform="matrix(0.0087890625,0,0,0.0087890625,37.23046875,0)" xlink:href="#V"/></g><filter id="g" filterUnits="objectBoundingBox" x="-.01" y="-.01" width="1.02" height="1.05"><feOffset result="offOut" in="SourceAlpha" dy="1"/><feGaussianBlur result="blurOut" in="offOut" stdDeviation=".75"/><feColorMatrix result="colorOut" in="blurOut" values="0 0 0 0 0 0 0 0 0 0 0 0 0 0 0 0 0 0 0.4 0"/><feBlend in="SourceGraphic" in2="colorOut"/></filter><path d="M973-380H363L226 0H28l556-1456h168L1309 0h-197zM421-538h495l-248-681" id="W"/><path d="M1216-1011c-1 297-202 441-512 441H361V0H169v-1456h537c297-6 510 164 510 445zm-192 2c1-178-126-288-307-289H361v571h345c196 1 318-92 318-282" id="X"/><path d="M375 0H183v-1456h192V0" id="Y"/><g id="i"><use transform="matrix(0.0087890625,0,0,0.0087890625,0,0)" xlink:href="#W"/><use transform="matrix(0.0087890625,0,0,0.0087890625,11.7421875,0)" xlink:href="#X"/><use transform="matrix(0.0087890625,0,0,0.0087890625,23.09765625,0)" xlink:href="#Y"/></g><path d="M632-1102c291 0 422 251 422 573 0 297-141 548-419 549-131 0-235-42-310-125v521H140v-1498h169l9 120c75-93 180-140 314-140zm-53 971c207 0 290-180 290-419 0-218-92-395-292-395-112 0-196 50-252 149v517c55 99 140 148 254 148" id="Z"/><path d="M494-271l252-811h198L509 167C425 381 299 474 84 421V271c167 16 242-37 283-173l41-110L22-1082h202" id="aa"/><g id="j"><use transform="matrix(0.0087890625,0,0,0.0087890625,0,0)" xlink:href="#B"/><use transform="matrix(0.0087890625,0,0,0.0087890625,11.8037109375,0)" xlink:href="#F"/><use transform="matrix(0.0087890625,0,0,0.0087890625,21.33984375,0)" xlink:href="#Z"/><use transform="matrix(0.0087890625,0,0,0.0087890625,31.4384765625,0)" xlink:href="#I"/><use transform="matrix(0.0087890625,0,0,0.0087890625,35.806640625,0)" xlink:href="#C"/><use transform="matrix(0.0087890625,0,0,0.0087890625,45.9404296875,0)" xlink:href="#aa"/><use transform="matrix(0.0087890625,0,0,0.0087890625,54.45703125,0)" xlink:href="#K"/><use transform="matrix(0.0087890625,0,0,0.0087890625,70.2333984375,0)" xlink:href="#F"/><use transform="matrix(0.0087890625,0,0,0.0087890625,79.76953125,0)" xlink:href="#Q"/><use transform="matrix(0.0087890625,0,0,0.0087890625,89.701171875,0)" xlink:href="#P"/></g><path d="M1161-1018c0 201-122 330-278 388l342 618V0h-206L703-589H361V0H168v-1456h482c310-2 511 139 511 438zm-193 0c0-187-120-280-313-280H361v552h295c179 3 313-101 312-272" id="ab"/><path d="M525-543H37v-151h488v151" id="ac"/><path d="M634-1102c292 0 422 254 422 573 0 298-143 547-420 549-137 0-242-48-317-145L310 0H140v-1536h185v573c75-93 178-139 309-139zm-44 965c207 0 281-175 281-413 0-224-79-395-283-395-122 0-210 57-263 170v468c57 113 145 170 265 170" id="ad"/><path d="M729 0H543v-1233l-373 137v-168l530-199h29V0" id="ae"/><g id="l"><use transform="matrix(0.0087890625,0,0,0.0087890625,0,0)" xlink:href="#ab"/><use transform="matrix(0.0087890625,0,0,0.0087890625,11.0830078125,0)" xlink:href="#F"/><use transform="matrix(0.0087890625,0,0,0.0087890625,20.619140625,0)" xlink:href="#Z"/><use transform="matrix(0.0087890625,0,0,0.0087890625,30.7177734375,0)" xlink:href="#I"/><use transform="matrix(0.0087890625,0,0,0.0087890625,35.0859375,0)" xlink:href="#U"/><use transform="matrix(0.0087890625,0,0,0.0087890625,39.4541015625,0)" xlink:href="#D"/><use transform="matrix(0.0087890625,0,0,0.0087890625,48.8759765625,0)" xlink:href="#O"/><use transform="matrix(0.0087890625,0,0,0.0087890625,58.6669921875,0)" xlink:href="#ac"/><use transform="matrix(0.0087890625,0,0,0.0087890625,63.6328125,0)" xlink:href="#N"/><use transform="matrix(0.0087890625,0,0,0.0087890625,69.8818359375,0)" xlink:href="#G"/><use transform="matrix(0.0087890625,0,0,0.0087890625,75.796875,0)" xlink:href="#C"/><use transform="matrix(0.0087890625,0,0,0.0087890625,86.0625,0)" xlink:href="#Q"/><use transform="matrix(0.0087890625,0,0,0.0087890625,95.994140625,0)" xlink:href="#P"/><use transform="matrix(0.0087890625,0,0,0.0087890625,101.8740234375,0)" xlink:href="#ac"/><use transform="matrix(0.0087890625,0,0,0.0087890625,106.83984375,0)" xlink:href="#ad"/><use transform="matrix(0.0087890625,0,0,0.0087890625,116.9384765625,0)" xlink:href="#O"/><use transform="matrix(0.0087890625,0,0,0.0087890625,126.7294921875,0)" xlink:href="#D"/><use transform="matrix(0.0087890625,0,0,0.0087890625,136.1513671875,0)" xlink:href="#E"/><use transform="matrix(0.0087890625,0,0,0.0087890625,145.2744140625,0)" xlink:href="#ac"/><use transform="matrix(0.0087890625,0,0,0.0087890625,150.240234375,0)" xlink:href="#ae"/></g><filter id="k" filterUnits="objectBoundingBox" x="-.01" y="-.01" width="1.01" height="1.05"><feOffset result="offOut" in="SourceAlpha" dy="1"/><feGaussianBlur result="blurOut" in="offOut" stdDeviation=".75"/><feColorMatrix result="colorOut" in="blurOut" values="0 0 0 0 0 0 0 0 0 0 0 0 0 0 0 0 0 0 0.4 0"/><feBlend in="SourceGraphic" in2="colorOut"/></filter><path d="M569-1476c255 0 440 146 439 390 0 143-91 314-274 512L344-151h731V0H121v-133l504-560c75-85 125-155 155-207 105-184 6-424-211-424-183 0-293 113-291 297H93c-3-270 199-449 476-449" id="af"/><g id="m"><use transform="matrix(0.0087890625,0,0,0.0087890625,0,0)" xlink:href="#ab"/><use transform="matrix(0.0087890625,0,0,0.0087890625,11.0830078125,0)" xlink:href="#F"/><use transform="matrix(0.0087890625,0,0,0.0087890625,20.619140625,0)" xlink:href="#Z"/><use transform="matrix(0.0087890625,0,0,0.0087890625,30.7177734375,0)" xlink:href="#I"/><use transform="matrix(0.0087890625,0,0,0.0087890625,35.0859375,0)" xlink:href="#U"/><use transform="matrix(0.0087890625,0,0,0.0087890625,39.4541015625,0)" xlink:href="#D"/><use transform="matrix(0.0087890625,0,0,0.0087890625,48.8759765625,0)" xlink:href="#O"/><use transform="matrix(0.0087890625,0,0,0.0087890625,58.6669921875,0)" xlink:href="#ac"/><use transform="matrix(0.0087890625,0,0,0.0087890625,63.6328125,0)" xlink:href="#N"/><use transform="matrix(0.0087890625,0,0,0.0087890625,69.8818359375,0)" xlink:href="#G"/><use transform="matrix(0.0087890625,0,0,0.0087890625,75.796875,0)" xlink:href="#C"/><use transform="matrix(0.0087890625,0,0,0.0087890625,86.0625,0)" xlink:href="#Q"/><use transform="matrix(0.0087890625,0,0,0.0087890625,95.994140625,0)" xlink:href="#P"/><use transform="matrix(0.0087890625,0,0,0.0087890625,101.8740234375,0)" xlink:href="#ac"/><use transform="matrix(0.0087890625,0,0,0.0087890625,106.83984375,0)" xlink:href="#ad"/><use transform="matrix(0.0087890625,0,0,0.0087890625,116.9384765625,0)" xlink:href="#O"/><use transform="matrix(0.0087890625,0,0,0.0087890625,126.7294921875,0)" xlink:href="#D"/><use transform="matrix(0.0087890625,0,0,0.0087890625,136.1513671875,0)" xlink:href="#E"/><use transform="matrix(0.0087890625,0,0,0.0087890625,145.2744140625,0)" xlink:href="#ac"/><use transform="matrix(0.0087890625,0,0,0.0087890625,150.240234375,0)" xlink:href="#af"/></g><path d="M589-945c-131 0-219 81-264 174V0H140v-1536h185v585c82-101 189-151 320-151 229 0 346 129 346 387V0H806v-716c-2-153-65-229-217-229" id="ag"/><g id="n"><use transform="matrix(0.0087890625,0,0,0.0087890625,0,0)" xlink:href="#X"/><use transform="matrix(0.0087890625,0,0,0.0087890625,11.35546875,0)" xlink:href="#G"/><use transform="matrix(0.0087890625,0,0,0.0087890625,17.2705078125,0)" xlink:href="#C"/><use transform="matrix(0.0087890625,0,0,0.0087890625,27.5361328125,0)" xlink:href="#K"/><use transform="matrix(0.0087890625,0,0,0.0087890625,43.3125,0)" xlink:href="#F"/><use transform="matrix(0.0087890625,0,0,0.0087890625,52.8486328125,0)" xlink:href="#P"/><use transform="matrix(0.0087890625,0,0,0.0087890625,58.728515625,0)" xlink:href="#ag"/><use transform="matrix(0.0087890625,0,0,0.0087890625,68.642578125,0)" xlink:href="#F"/><use transform="matrix(0.0087890625,0,0,0.0087890625,78.1787109375,0)" xlink:href="#J"/><use transform="matrix(0.0087890625,0,0,0.0087890625,88.1015625,0)" xlink:href="#L"/></g><path d="M730-137c145 0 253-29 323-105v-327H716v-156h528v534C1148-51 964 20 729 20c-394 0-598-279-607-678v-127c-5-410 194-690 585-691 310-1 499 171 537 447h-192c-36-193-151-289-344-289-285 0-393 220-393 528v119c-5 296 140 534 415 534" id="ah"/><g id="o"><use transform="matrix(0.0087890625,0,0,0.0087890625,0,0)" xlink:href="#ah"/><use transform="matrix(0.0087890625,0,0,0.0087890625,12.2607421875,0)" xlink:href="#G"/><use transform="matrix(0.0087890625,0,0,0.0087890625,18,0)" xlink:href="#O"/><use transform="matrix(0.0087890625,0,0,0.0087890625,27.791015625,0)" xlink:href="#N"/><use transform="matrix(0.0087890625,0,0,0.0087890625,34.0400390625,0)" xlink:href="#O"/><use transform="matrix(0.0087890625,0,0,0.0087890625,43.8310546875,0)" xlink:href="#Q"/><use transform="matrix(0.0087890625,0,0,0.0087890625,53.7626953125,0)" xlink:href="#O"/></g><g id="q"><use transform="matrix(0.0087890625,0,0,0.0087890625,0,0)" xlink:href="#W"/><use transform="matrix(0.0087890625,0,0,0.0087890625,11.7421875,0)" xlink:href="#I"/><use transform="matrix(0.0087890625,0,0,0.0087890625,16.1103515625,0)" xlink:href="#F"/><use transform="matrix(0.0087890625,0,0,0.0087890625,25.646484375,0)" xlink:href="#G"/><use transform="matrix(0.0087890625,0,0,0.0087890625,32.1767578125,0)" xlink:href="#P"/><use transform="matrix(0.0087890625,0,0,0.0087890625,38.056640625,0)" xlink:href="#K"/><use transform="matrix(0.0087890625,0,0,0.0087890625,53.8330078125,0)" xlink:href="#O"/><use transform="matrix(0.0087890625,0,0,0.0087890625,63.6240234375,0)" xlink:href="#Q"/><use transform="matrix(0.0087890625,0,0,0.0087890625,73.5556640625,0)" xlink:href="#O"/><use transform="matrix(0.0087890625,0,0,0.0087890625,83.3466796875,0)" xlink:href="#T"/><use transform="matrix(0.0087890625,0,0,0.0087890625,93.4453125,0)" xlink:href="#F"/><use transform="matrix(0.0087890625,0,0,0.0087890625,102.9814453125,0)" xlink:href="#G"/></g><filter id="p" filterUnits="objectBoundingBox" x="-.01" y="-.01" width="1.02" height="1.05"><feOffset result="offOut" in="SourceAlpha" dy="1"/><feGaussianBlur result="blurOut" in="offOut" stdDeviation=".75"/><feColorMatrix result="colorOut" in="blurOut" values="0 0 0 0 0 0 0 0 0 0 0 0 0 0 0 0 0 0 0.4 0"/><feBlend in="SourceGraphic" in2="colorOut"/></filter><path fill="#3a414a" d="M134-131c28 9 52 24 51 62-1 50-34 73-85 73S17-19 16-69c0-36 21-54 49-61-75-25-45-126 34-121 46 3 78 18 79 63 0 33-17 51-44 57zm-34-11c31 1 46-15 46-44 0-28-17-43-47-42-29 0-46 13-45 42 1 28 16 44 46 44zm1 122c35 0 51-18 51-52 0-30-18-46-53-46-33 0-51 17-51 47 0 34 19 51 53 51" id="ai"/><path fill="#3a414a" d="M101-251c68 0 85 55 85 127S166 4 100 4C33 4 14-52 14-124c0-73 17-127 87-127zm-1 229c47 0 54-49 54-102s-4-102-53-102c-51 0-55 48-55 102 0 53 5 102 54 102" id="aj"/><g id="r"><use transform="matrix(0.06172839506172839,0,0,0.06172839506172839,0,0)" xlink:href="#ai"/><use transform="matrix(0.06172839506172839,0,0,0.06172839506172839,12.345679012345679,0)" xlink:href="#aj"/></g><path fill="#3a414a" d="M126-127c33 6 58 20 58 59 0 88-139 92-164 29-3-8-5-16-6-25l32-3c6 27 21 44 54 44 32 0 52-15 52-46 0-38-36-46-79-43v-28c39 1 72-4 72-42 0-27-17-43-46-43-28 0-47 15-49 41l-32-3c6-42 35-63 81-64 48-1 79 21 79 65 0 36-21 52-52 59" id="ak"/><g id="s"><use transform="matrix(0.06172839506172839,0,0,0.06172839506172839,0,0)" xlink:href="#ak"/><use transform="matrix(0.06172839506172839,0,0,0.06172839506172839,12.345679012345679,0)" xlink:href="#aj"/><use transform="matrix(0.06172839506172839,0,0,0.06172839506172839,24.691358024691358,0)" xlink:href="#aj"/><use transform="matrix(0.06172839506172839,0,0,0.06172839506172839,37.03703703703704,0)" xlink:href="#aj"/></g><path fill="#3a414a" d="M99-251c64 0 84 50 84 122C183-37 130 33 47-8c-14-7-20-23-25-40l30-5c6 39 69 39 84 7 9-19 16-44 16-74-10 22-31 35-62 35-49 0-73-33-73-83 0-54 28-83 82-83zm-1 141c31-1 51-18 51-49 0-36-14-67-51-67-34 0-49 23-49 58 0 34 15 58 49 58" id="al"/><g id="t"><use transform="matrix(0.06172839506172839,0,0,0.06172839506172839,0,0)" xlink:href="#al"/><use transform="matrix(0.06172839506172839,0,0,0.06172839506172839,12.345679012345679,0)" xlink:href="#aj"/><use transform="matrix(0.06172839506172839,0,0,0.06172839506172839,24.691358024691358,0)" xlink:href="#al"/><use transform="matrix(0.06172839506172839,0,0,0.06172839506172839,37.03703703703704,0)" xlink:href="#aj"/></g><g id="u"><use transform="matrix(0.06172839506172839,0,0,0.06172839506172839,0,0)" xlink:href="#ai"/><use transform="matrix(0.06172839506172839,0,0,0.06172839506172839,12.345679012345679,0)" xlink:href="#aj"/></g><g id="v"><use transform="matrix(0.0087890625,0,0,0.0087890625,0,0)" xlink:href="#S"/><use transform="matrix(0.0087890625,0,0,0.0087890625,12.83203125,0)" xlink:href="#T"/><use transform="matrix(0.0087890625,0,0,0.0087890625,22.9306640625,0)" xlink:href="#U"/><use transform="matrix(0.0087890625,0,0,0.0087890625,27.298828125,0)" xlink:href="#Q"/><use transform="matrix(0.0087890625,0,0,0.0087890625,37.23046875,0)" xlink:href="#V"/></g><g id="w"><use transform="matrix(0.0087890625,0,0,0.0087890625,0,0)" xlink:href="#F"/><use transform="matrix(0.0087890625,0,0,0.0087890625,9.5361328125,0)" xlink:href="#V"/><use transform="matrix(0.0087890625,0,0,0.0087890625,18.45703125,0)" xlink:href="#Z"/><use transform="matrix(0.0087890625,0,0,0.0087890625,28.5556640625,0)" xlink:href="#C"/><use transform="matrix(0.0087890625,0,0,0.0087890625,38.8212890625,0)" xlink:href="#G"/><use transform="matrix(0.0087890625,0,0,0.0087890625,45.3515625,0)" xlink:href="#P"/><use transform="matrix(0.0087890625,0,0,0.0087890625,51.2314453125,0)" xlink:href="#F"/><use transform="matrix(0.0087890625,0,0,0.0087890625,60.767578125,0)" xlink:href="#G"/></g><g id="x"><use transform="matrix(0.06172839506172839,0,0,0.06172839506172839,0,0)" xlink:href="#al"/><use transform="matrix(0.06172839506172839,0,0,0.06172839506172839,12.345679012345679,0)" xlink:href="#aj"/><use transform="matrix(0.06172839506172839,0,0,0.06172839506172839,24.691358024691358,0)" xlink:href="#al"/><use transform="matrix(0.06172839506172839,0,0,0.06172839506172839,37.03703703703704,0)" xlink:href="#ak"/></g><path fill="#3a414a" d="M27 0v-27h64v-190l-56 39v-29l58-41h29v221h61V0H27" id="am"/><g id="y"><use transform="matrix(0.06172839506172839,0,0,0.06172839506172839,0,0)" xlink:href="#al"/><use transform="matrix(0.06172839506172839,0,0,0.06172839506172839,12.345679012345679,0)" xlink:href="#am"/><use transform="matrix(0.06172839506172839,0,0,0.06172839506172839,23.02469135802469,0)" xlink:href="#am"/><use transform="matrix(0.06172839506172839,0,0,0.06172839506172839,35.37037037037037,0)" xlink:href="#ak"/></g><path fill="#333" d="M4 7l51-268h42L46 7H4" id="an"/><path fill="#333" d="M135-194c87-1 58 113 63 194h-50c-7-57 23-157-34-157-59 0-34 97-39 157H25l-1-190h47c2 12-1 28 3 38 12-26 28-41 61-42" id="ao"/><path fill="#333" d="M195-6C206 82 75 100 31 46c-4-6-6-13-8-21l49-6c3 16 16 24 34 25 40 0 42-37 40-79-11 22-30 35-61 35-53 0-70-43-70-97 0-56 18-96 73-97 30 0 46 14 59 34l2-30h47zm-90-29c32 0 41-27 41-63 0-35-9-62-40-62-32 0-39 29-40 63 0 36 9 62 39 62" id="ap"/><path fill="#333" d="M25-224v-37h50v37H25zM25 0v-190h50V0H25" id="aq"/><path fill="#333" d="M144 0l-44-69L55 0H2l70-98-66-92h53l41 62 40-62h54l-67 91 71 99h-54" id="ar"/><path fill="#333" d="M-4 44V30h207v14H-4" id="as"/><path fill="#333" d="M137-138c1-29-70-34-71-4 15 46 118 7 119 86 1 83-164 76-172 9l43-7c4 19 20 25 44 25 33 8 57-30 24-41C81-84 22-81 20-136c-2-80 154-74 161-7" id="at"/><path fill="#333" d="M115-3C79 11 28 4 28-45v-112H4v-33h27l15-45h31v45h36v33H77v99c-1 23 16 31 38 25v30" id="au"/><path fill="#333" d="M133-34C117-15 103 5 69 4 32 3 11-16 11-54c-1-60 55-63 116-61 1-26-3-47-28-47-18 1-26 9-28 27l-52-2c7-38 36-58 82-57s74 22 75 68l1 82c-1 14 12 18 25 15v27c-30 8-71 5-69-32zm-48 3c29 0 43-24 42-57-32 0-66-3-65 30 0 17 8 27 23 27" id="av"/><path fill="#333" d="M85 4C-2 5 27-109 22-190h50c7 57-23 150 33 157 60-5 35-97 40-157h50l1 190h-47c-2-12 1-28-3-38-12 25-28 42-61 42" id="aw"/><g id="z"><use transform="matrix(0.04938271604938272,0,0,0.04938271604938272,0,0)" xlink:href="#an"/><use transform="matrix(0.04938271604938272,0,0,0.04938271604938272,4.938271604938272,0)" xlink:href="#ao"/><use transform="matrix(0.04938271604938272,0,0,0.04938271604938272,15.753086419753087,0)" xlink:href="#ap"/><use transform="matrix(0.04938271604938272,0,0,0.04938271604938272,26.567901234567902,0)" xlink:href="#aq"/><use transform="matrix(0.04938271604938272,0,0,0.04938271604938272,31.506172839506174,0)" xlink:href="#ao"/><use transform="matrix(0.04938271604938272,0,0,0.04938271604938272,42.32098765432099,0)" xlink:href="#ar"/><use transform="matrix(0.04938271604938272,0,0,0.04938271604938272,52.19753086419754,0)" xlink:href="#as"/><use transform="matrix(0.04938271604938272,0,0,0.04938271604938272,62.074074074074076,0)" xlink:href="#at"/><use transform="matrix(0.04938271604938272,0,0,0.04938271604938272,71.95061728395062,0)" xlink:href="#au"/><use transform="matrix(0.04938271604938272,0,0,0.04938271604938272,77.82716049382717,0)" xlink:href="#av"/><use transform="matrix(0.04938271604938272,0,0,0.04938271604938272,87.70370370370371,0)" xlink:href="#au"/><use transform="matrix(0.04938271604938272,0,0,0.04938271604938272,93.58024691358025,0)" xlink:href="#aw"/><use transform="matrix(0.04938271604938272,0,0,0.04938271604938272,104.39506172839508,0)" xlink:href="#at"/></g><path fill="#3a414a" d="M115-194c55 1 70 41 70 98S169 2 115 4C84 4 66-9 55-30l1 105H24l-1-265h31l2 30c10-21 28-34 59-34zm-8 174c40 0 45-34 45-75s-6-73-45-74c-42 0-51 32-51 76 0 43 10 73 51 73" id="ax"/><path fill="#3a414a" d="M114-163C36-179 61-72 57 0H25l-1-190h30c1 12-1 29 2 39 6-27 23-49 58-41v29" id="ay"/><path fill="#3a414a" d="M100-194c62-1 85 37 85 99 1 63-27 99-86 99S16-35 15-95c0-66 28-99 85-99zM99-20c44 1 53-31 53-75 0-43-8-75-51-75s-53 32-53 75 10 74 51 75" id="az"/><path fill="#3a414a" d="M210-169c-67 3-38 105-44 169h-31v-121c0-29-5-50-35-48C34-165 62-65 56 0H25l-1-190h30c1 10-1 24 2 32 10-44 99-50 107 0 11-21 27-35 58-36 85-2 47 119 55 194h-31v-121c0-29-5-49-35-48" id="aA"/><path fill="#3a414a" d="M100-194c63 0 86 42 84 106H49c0 40 14 67 53 68 26 1 43-12 49-29l28 8c-11 28-37 45-77 45C44 4 14-33 15-96c1-61 26-98 85-98zm52 81c6-60-76-77-97-28-3 7-6 17-6 28h103" id="aB"/><path fill="#3a414a" d="M59-47c-2 24 18 29 38 22v24C64 9 27 4 27-40v-127H5v-23h24l9-43h21v43h35v23H59v120" id="aC"/><path fill="#3a414a" d="M106-169C34-169 62-67 57 0H25v-261h32l-1 103c12-21 28-36 61-36 89 0 53 116 60 194h-32v-121c2-32-8-49-39-48" id="aD"/><path fill="#3a414a" d="M84 4C-5 8 30-112 23-190h32v120c0 31 7 50 39 49 72-2 45-101 50-169h31l1 190h-30c-1-10 1-25-2-33-11 22-28 36-60 37" id="aE"/><path fill="#3a414a" d="M135-143c-3-34-86-38-87 0 15 53 115 12 119 90S17 21 10-45l28-5c4 36 97 45 98 0-10-56-113-15-118-90-4-57 82-63 122-42 12 7 21 19 24 35" id="aF"/><g id="A"><use transform="matrix(0.06172839506172839,0,0,0.06172839506172839,0,0)" xlink:href="#ax"/><use transform="matrix(0.06172839506172839,0,0,0.06172839506172839,12.345679012345679,0)" xlink:href="#ay"/><use transform="matrix(0.06172839506172839,0,0,0.06172839506172839,19.691358024691358,0)" xlink:href="#az"/><use transform="matrix(0.06172839506172839,0,0,0.06172839506172839,32.03703703703704,0)" xlink:href="#aA"/><use transform="matrix(0.06172839506172839,0,0,0.06172839506172839,50.49382716049382,0)" xlink:href="#aB"/><use transform="matrix(0.06172839506172839,0,0,0.06172839506172839,62.8395061728395,0)" xlink:href="#aC"/><use transform="matrix(0.06172839506172839,0,0,0.06172839506172839,69.01234567901234,0)" xlink:href="#aD"/><use transform="matrix(0.06172839506172839,0,0,0.06172839506172839,81.35802469135803,0)" xlink:href="#aB"/><use transform="matrix(0.06172839506172839,0,0,0.06172839506172839,93.70370370370371,0)" xlink:href="#aE"/><use transform="matrix(0.06172839506172839,0,0,0.06172839506172839,106.0493827160494,0)" xlink:href="#aF"/></g></defs></g></svg>